<svg width="512" height="512" viewBox="0 0 512 512" fill="none" xmlns="http://www.w3.org/2000/svg">
<g clip-path="url(#clip0_36_43)">
<path fill-rule="evenodd" clip-rule="evenodd" d="M256 0C188.105 0 122.99 26.9714 74.9807 74.9807C26.9714 122.99 0 188.105 0 256C0 323.895 26.9714 389.01 74.9807 437.019C122.99 485.029 188.105 512 256 512C323.895 512 389.01 485.029 437.019 437.019C485.029 389.01 512 323.895 512 256C512 188.105 485.029 122.99 437.019 74.9807C389.01 26.9714 323.895 0 256 0ZM123.392 143.36H169.042L195.871 225.608H360.448L369.316 201.032L388.567 208.036L345.19 327.68L219.402 327.885L207.77 368.722H358.031V389.202H194.191C192.609 389.199 191.048 388.83 189.632 388.122C188.216 387.415 186.983 386.389 186.031 385.124C185.078 383.86 184.432 382.393 184.142 380.837C183.852 379.28 183.927 377.678 184.361 376.156L202.588 312.259L154.214 163.84H123.392V143.36ZM202.568 246.088L209.121 266.24H345.682L352.993 246.088H202.568ZM215.798 286.72V286.761L222.556 307.446L330.834 307.241L338.289 286.72H215.818H215.798Z" fill="#0a1e2f"/>
</g>
<defs>
<clipPath id="clip0_36_43">
<rect width="512" height="512" fill="white"/>
</clipPath>
</defs>
</svg>
